<svg xmlns="http://www.w3.org/2000/svg" xmlns:xlink="http://www.w3.org/1999/xlink" viewBox="0 0 1920 1080"><defs><style>.cls-1{isolation:isolate;}.cls-2{fill:#f2f5fe;}.cls-3{opacity:0.54;}.cls-4{fill:url(#linear-gradient);}.cls-5{fill:#3c89f7;opacity:0.53;}.cls-30,.cls-6{opacity:0.3;}.cls-7{fill:url(#linear-gradient-2);}.cls-8,.cls-9{opacity:0.1;mix-blend-mode:multiply;}.cls-8{fill:url(#linear-gradient-3);}.cls-10,.cls-11,.cls-12,.cls-13,.cls-14,.cls-15,.cls-16,.cls-17,.cls-18,.cls-19,.cls-20,.cls-21,.cls-22,.cls-23,.cls-24,.cls-25,.cls-26,.cls-27,.cls-28{fill-rule:evenodd;}.cls-10{fill:url(#linear-gradient-4);}.cls-11{fill:url(#linear-gradient-5);}.cls-12{fill:url(#linear-gradient-6);}.cls-13{fill:url(#linear-gradient-7);}.cls-14{fill:url(#linear-gradient-8);}.cls-15{fill:url(#linear-gradient-9);}.cls-16{fill:url(#linear-gradient-10);}.cls-17{fill:url(#linear-gradient-11);}.cls-18{fill:url(#linear-gradient-12);}.cls-19{fill:url(#linear-gradient-13);}.cls-20{fill:url(#linear-gradient-14);}.cls-21{fill:url(#linear-gradient-15);}.cls-22{fill:url(#linear-gradient-16);}.cls-23{fill:url(#linear-gradient-17);}.cls-24{fill:url(#linear-gradient-18);}.cls-25{fill:url(#linear-gradient-19);}.cls-26{fill:url(#linear-gradient-20);}.cls-27{fill:url(#linear-gradient-21);}.cls-28{fill:url(#linear-gradient-22);}.cls-29{fill:#c7e0ff;}.cls-30,.cls-31,.cls-32,.cls-33{fill:#b8d5ff;}.cls-31{opacity:0.5;}.cls-33{opacity:0.4;}</style><linearGradient id="linear-gradient" x1="1818" y1="279" x2="1586" y2="279" gradientUnits="userSpaceOnUse"><stop offset="0" stop-color="#2575fc"/><stop offset="0.62" stop-color="#74adfe"/><stop offset="0.99" stop-color="#9fcbff"/></linearGradient><linearGradient id="linear-gradient-2" x1="261" y1="230" x2="195" y2="230" xlink:href="#linear-gradient"/><linearGradient id="linear-gradient-3" x1="206.75" y1="231.52" x2="261" y2="231.52" gradientUnits="userSpaceOnUse"><stop offset="0" stop-color="#2575fc"/><stop offset="0.99" stop-color="#2575fc"/></linearGradient><linearGradient id="linear-gradient-4" x1="382.58" y1="570.96" x2="382.58" y2="719.71" gradientTransform="translate(-84.74 62.81) rotate(-7.91)" gradientUnits="userSpaceOnUse"><stop offset="0" stop-color="#2575fc" stop-opacity="0.5"/><stop offset="0.19" stop-color="#2575fc" stop-opacity="0.49"/><stop offset="0.37" stop-color="#2575fc" stop-opacity="0.44"/><stop offset="0.54" stop-color="#2575fc" stop-opacity="0.37"/><stop offset="0.71" stop-color="#2575fc" stop-opacity="0.26"/><stop offset="0.87" stop-color="#2575fc" stop-opacity="0.13"/><stop offset="1" stop-color="#2575fc" stop-opacity="0"/></linearGradient><linearGradient id="linear-gradient-5" x1="213.46" y1="684.2" x2="213.46" y2="697.38" xlink:href="#linear-gradient-4"/><linearGradient id="linear-gradient-6" x1="240.11" y1="610.88" x2="240.11" y2="631.68" xlink:href="#linear-gradient-4"/><linearGradient id="linear-gradient-7" x1="175.12" y1="640.92" x2="175.12" y2="654.87" xlink:href="#linear-gradient-4"/><linearGradient id="linear-gradient-8" x1="74.62" y1="638.86" x2="74.62" y2="656.15" xlink:href="#linear-gradient-4"/><linearGradient id="linear-gradient-9" x1="327.13" y1="697.9" x2="327.13" y2="705.84" xlink:href="#linear-gradient-4"/><linearGradient id="linear-gradient-10" x1="335.93" y1="705.89" x2="335.93" y2="709.51" xlink:href="#linear-gradient-4"/><linearGradient id="linear-gradient-11" x1="572.48" y1="639.45" x2="572.48" y2="647.5" xlink:href="#linear-gradient-4"/><linearGradient id="linear-gradient-12" x1="628.54" y1="570.96" x2="628.54" y2="582" xlink:href="#linear-gradient-4"/><linearGradient id="linear-gradient-13" x1="1631.16" y1="601.22" x2="1631.16" y2="749.96" gradientTransform="translate(155.59 -313.85) rotate(12.11)" xlink:href="#linear-gradient-4"/><linearGradient id="linear-gradient-14" x1="1487.92" y1="714.46" x2="1487.92" y2="727.64" gradientTransform="translate(155.59 -313.85) rotate(12.11)" xlink:href="#linear-gradient-4"/><linearGradient id="linear-gradient-15" x1="1514.57" y1="641.14" x2="1514.57" y2="661.93" gradientTransform="translate(155.59 -313.85) rotate(12.11)" xlink:href="#linear-gradient-4"/><linearGradient id="linear-gradient-16" x1="1449.57" y1="671.18" x2="1449.57" y2="685.12" gradientTransform="translate(155.59 -313.85) rotate(12.11)" xlink:href="#linear-gradient-4"/><linearGradient id="linear-gradient-17" x1="1349.07" y1="669.11" x2="1349.07" y2="686.41" gradientTransform="translate(155.59 -313.85) rotate(12.11)" xlink:href="#linear-gradient-4"/><linearGradient id="linear-gradient-18" x1="1601.58" y1="728.16" x2="1601.58" y2="736.1" gradientTransform="translate(155.59 -313.85) rotate(12.11)" xlink:href="#linear-gradient-4"/><linearGradient id="linear-gradient-19" x1="1610.39" y1="736.15" x2="1610.39" y2="739.76" gradientTransform="translate(155.59 -313.85) rotate(12.11)" xlink:href="#linear-gradient-4"/><linearGradient id="linear-gradient-20" x1="1846.93" y1="669.71" x2="1846.93" y2="677.75" gradientTransform="translate(155.59 -313.85) rotate(12.11)" xlink:href="#linear-gradient-4"/><linearGradient id="linear-gradient-21" x1="1902.99" y1="601.22" x2="1902.99" y2="612.25" gradientTransform="translate(155.59 -313.85) rotate(12.11)" xlink:href="#linear-gradient-4"/><linearGradient id="linear-gradient-22" x1="960" y1="1080" x2="960" y2="671" gradientUnits="userSpaceOnUse"><stop offset="0.01" stop-color="#f3f8ff"/><stop offset="0.93" stop-color="#c8dfff"/><stop offset="1" stop-color="#c5ddff"/></linearGradient></defs><title>Signup Page_Bg Design</title><g class="cls-1"><g id="Bg"><rect class="cls-2" width="1920" height="1080"/></g><g id="Design"><g class="cls-3"><circle class="cls-4" cx="1702" cy="279" r="116"/><ellipse class="cls-5" cx="1662.88" cy="259.67" rx="26.53" ry="30.12"/><ellipse class="cls-5" cx="1643.1" cy="301.93" rx="12.14" ry="14.84" transform="translate(182.35 1112.59) rotate(-39.44)"/><ellipse class="cls-5" cx="1601.74" cy="260.57" rx="14.84" ry="6.5" transform="translate(1014.97 1773.56) rotate(-78.04)"/><ellipse class="cls-5" cx="1618.82" cy="210.21" rx="8.87" ry="3.89" transform="translate(553.97 1447.49) rotate(-56.68)"/><ellipse class="cls-5" cx="1629.61" cy="194.02" rx="5.91" ry="2.59" transform="translate(121.32 840.8) rotate(-30)"/><ellipse class="cls-5" cx="1644.9" cy="187.73" rx="5.91" ry="2.59" transform="matrix(0.87, -0.5, 0.5, 0.87, 126.51, 847.6)"/><ellipse class="cls-5" cx="1636.69" cy="362.3" rx="4.61" ry="7.21" transform="translate(263.84 1324.23) rotate(-47.5)"/><ellipse class="cls-5" cx="1600.84" cy="296.53" rx="2.01" ry="4.6" transform="translate(-27.15 312.52) rotate(-11.06)"/><ellipse class="cls-5" cx="1684.47" cy="308.22" rx="14.84" ry="11.24"/><circle class="cls-5" cx="1740.22" cy="253.37" r="14.84"/><ellipse class="cls-5" cx="1677.82" cy="377.76" rx="5.5" ry="11.71" transform="translate(844.55 1882.23) rotate(-73.71)"/><ellipse class="cls-5" cx="1708.74" cy="183.68" rx="21.13" ry="8.99"/><ellipse class="cls-5" cx="1799.57" cy="261.02" rx="21.13" ry="8.99" transform="translate(1298.06 2008.89) rotate(-82.24)"/></g><g class="cls-6"><circle class="cls-7" cx="228" cy="230" r="33"/><path class="cls-8" d="M241.84,200a33,33,0,0,1-35.09,55.2A33,33,0,1,0,241.84,200Z"/></g><g class="cls-9"><path class="cls-10" d="M37.31,765.69s-19.06-50.64,33.63-78A30.34,30.34,0,0,1,87.18,685c9.95,1.37,25.24,6.24,35,22.54.56.93,3,1.31,5.69.87L142,706.07c2.2-.37,4-1.21,4.42-2.09L156,684.84c1.79-3.56,8.46-7,17.14-8.88l25.23-5.4,17.09-22.49c-.47,0,14.59-5.24,21-7.62l23.59-8.79,10.09,72.62,14.46.36a9.52,9.52,0,0,1,5.2,1.28L313.42,724a3.53,3.53,0,0,0,3.44-.49l8.58-12.5c.42-.59,2.05-1,3.37-.94l25.42,2.25,6.63,3.11,16.78-1.05L426,702.75a250.63,250.63,0,0,1,25-4.66l107.92-14.61s-10.2-45,2.28-64.8c0,0,19-1.37,18.87-1.46,6.4,5,13.27,14.53,17.27,26.13,0,0-4.39-84.44,7.1-99.19L632,539.7l43.3,112.76,28.37-2.88L748.83,670,37.12,772.5Z"/><path class="cls-11" d="M288.13,705.12s-26,18.1-86,20.5c-19.63.82-47.21,1.25-47.21,1.25s60.57-2.47,83.7-10.56,31.61-12,31.61-12Z"/><polygon class="cls-12" points="215.56 648.02 230.87 656.72 262.23 646.92 260.11 631.66 215.56 648.02"/><path class="cls-13" d="M168.11,687.1s30.6,1.5,30.91-7.93c.23-7.25-.63-8.61-.63-8.61s-35,5.93-35.83,6-6.27,7.66-6.27,7.66Z"/><path class="cls-14" d="M46.81,706.79s14.25-17.28,29.57-21.19,30.78,6.33,35.14,9.62S46.81,706.79,46.81,706.79Z"/><path class="cls-15" d="M321.81,716.32l13.89.71L350.2,712l-21.27-1.88c-1.38-.12-3.09.36-3.52,1Z"/><path class="cls-16" d="M360.87,715.45s-14.58,5.83-30.95,4.6c0,0,21.25-1.78,27.92-6Z"/><path class="cls-17" d="M558.78,623.49l13.36,1.79,10.8-5.54-2.87-2.52-18.87,1.46A20,20,0,0,0,558.78,623.49Z"/><path class="cls-18" d="M633.46,543.45l-5.75,8-26.76.77s1.51-6.3,3.49-8.05L632,539.7Z"/></g><g class="cls-9"><path class="cls-19" d="M1269.37,685.32s-.57-54.11,58.31-61.79a30.53,30.53,0,0,1,16.17,3.07c8.88,4.7,21.57,14.51,25.14,33.15.2,1.07,2.4,2.28,5,2.77l14.13,2.63c2.19.41,4.15.22,4.87-.45L1408.6,650c2.89-2.74,10.34-3.7,19.13-2.48l25.56,3.56,23.76-15.28c-.46-.13,15.5.07,22.36,0l25.19-.18-15.39,71.69,13.46,5.29a9.51,9.51,0,0,1,4.45,3l16,25.06a3.51,3.51,0,0,0,3.4.72l12.34-8.8c.59-.42,2.28-.29,3.48.26l23.11,10.82,5.17,5.2,16.13,4.74,49.46,5.64a249.48,249.48,0,0,1,25,4.17l106.41,23.21s5.83-45.8,24.32-60.1c0,0,18.31,5.22,18.23,5.09,4.29,6.91,7.49,18.19,7.28,30.47,0,0,24.78-80.85,40.62-90.77l27.45,5.24,2.08,120.78,12.4,3.14v27.93L1266.87,691.66Z"/><path class="cls-20" d="M1525.78,714.28s-30.65,8.1-87.87-10.2c-18.72-6-44.78-15-44.78-15s57.76,18.41,82.27,18.73,33.81-.48,33.81-.48Z"/><polygon class="cls-21" points="1477.14 635.79 1488.55 649.2 1521.36 650.73 1524.6 635.66 1477.14 635.79"/><path class="cls-22" d="M1419.18,656.26s28.23,11.89,31.75,3.13c2.71-6.73,2.36-8.31,2.36-8.31s-34.93-6.42-35.73-6.59-8.51,5-8.51,5Z"/><path class="cls-23" d="M1298.47,633.23s19.3-11.35,35-9.79,26.74,16.49,29.71,21.08S1298.47,633.23,1298.47,633.23Z"/><path class="cls-24" d="M1553.59,736.33l12.81,5.42,15.35.21-19.35-9c-1.25-.59-3-.73-3.64-.28Z"/><path class="cls-25" d="M1590.58,748.88s-15.69.49-30.65-6.27c0,0,20.58,5.6,28.31,3.88Z"/><path class="cls-26" d="M1808,730.23l11.94,6.26,12-1.51-1.83-3.35-18.23-5.09A20,20,0,0,0,1808,730.23Z"/><path class="cls-27" d="M1905.59,680.6l-8.14,5.53L1872,677.7s3.57-5.41,6-6.37l27.45,5.24Z"/></g><path class="cls-28" d="M1920,773.94C1618.75,707.2,1295.86,671,960,671S301.25,707.2,0,773.94V1080H1920Z"/><path class="cls-29" d="M1710.25,861.73c0,6.64-7.39,9.68-25.21,9.68s-27-4-27-10.62,9.2-21.18,27-21.18S1710.25,855.09,1710.25,861.73Z"/><path class="cls-30" d="M1375.19,709.25c0,3.36-7.32,6.09-16.34,6.09s-11.77-.63-11.77-4,.86-8.18,9.88-8.18S1375.19,705.89,1375.19,709.25Z"/><path class="cls-31" d="M674.82,730.67c0,3.36-7.32,6.09-16.34,6.09s-11.77-.63-11.77-4,.86-8.19,9.88-8.19S674.82,727.31,674.82,730.67Z"/><path class="cls-32" d="M325.19,923.2c0,3.36-7.31,6.09-16.34,6.09s-11.76-.64-11.76-4,.85-8.18,9.88-8.18S325.19,919.84,325.19,923.2Z"/><path class="cls-29" d="M1616,848.25c0,4.79-10.43,8.67-23.29,8.67S1576,856,1576,851.23s1.22-11.65,14.08-11.65S1616,843.46,1616,848.25Z"/><path class="cls-29" d="M111.24,1043.49c0,10.85-7.16,19.65-24.57,19.65s-29.08-8.8-29.08-19.65S67.5,1036,84.91,1036,111.24,1032.64,111.24,1043.49Z"/><path class="cls-29" d="M483.86,917.11c0,10.85-7.16,19.65-24.57,19.65s-29.08-8.8-29.08-19.65,11.67-19.64,29.08-19.64S483.86,906.26,483.86,917.11Z"/><path class="cls-29" d="M1294.14,963.17c0,14.59-9.62,26.41-33,26.41s-39.1-11.82-39.1-26.41,15.69-26.41,39.1-26.41S1294.14,948.58,1294.14,963.17Z"/><path class="cls-33" d="M84.09,829.63c0,3.44-3.41,3.82-12.64,3.82s-16.71-2.79-16.71-6.23S63.6,816.7,72.82,816.7,84.09,826.19,84.09,829.63Z"/></g></g></svg>